<mxfile host="app.diagrams.net" modified="2022-12-01T15:45:36.735Z" agent="5.0 (Windows NT 10.0; Win64; x64) AppleWebKit/537.36 (KHTML, like Gecko) Chrome/103.0.0.0 Safari/537.36" etag="4TC-9F9uqTP0AZdvATQS" version="20.5.1" type="github">
  <diagram id="U2dF4iFa5jRd-pPTxI-w" name="Page-1">
    <mxGraphModel dx="862" dy="532" grid="1" gridSize="10" guides="1" tooltips="1" connect="1" arrows="1" fold="1" page="1" pageScale="1" pageWidth="827" pageHeight="1169" math="0" shadow="0">
      <root>
        <mxCell id="0" />
        <mxCell id="1" parent="0" />
        <mxCell id="dUHJhGb4zcVwApMVoxg0-3" value="" style="edgeStyle=orthogonalEdgeStyle;rounded=0;orthogonalLoop=1;jettySize=auto;html=1;" edge="1" parent="1" source="dUHJhGb4zcVwApMVoxg0-1" target="dUHJhGb4zcVwApMVoxg0-2">
          <mxGeometry relative="1" as="geometry" />
        </mxCell>
        <mxCell id="dUHJhGb4zcVwApMVoxg0-4" value="模板编译" style="edgeLabel;html=1;align=center;verticalAlign=middle;resizable=0;points=[];" vertex="1" connectable="0" parent="dUHJhGb4zcVwApMVoxg0-3">
          <mxGeometry x="-0.2256" relative="1" as="geometry">
            <mxPoint as="offset" />
          </mxGeometry>
        </mxCell>
        <mxCell id="dUHJhGb4zcVwApMVoxg0-1" value="模板" style="rounded=0;whiteSpace=wrap;html=1;" vertex="1" parent="1">
          <mxGeometry x="70" y="190" width="140" height="60" as="geometry" />
        </mxCell>
        <mxCell id="dUHJhGb4zcVwApMVoxg0-6" value="" style="edgeStyle=orthogonalEdgeStyle;rounded=0;orthogonalLoop=1;jettySize=auto;html=1;" edge="1" parent="1" source="dUHJhGb4zcVwApMVoxg0-2" target="dUHJhGb4zcVwApMVoxg0-5">
          <mxGeometry relative="1" as="geometry" />
        </mxCell>
        <mxCell id="dUHJhGb4zcVwApMVoxg0-2" value="render函数" style="rounded=0;whiteSpace=wrap;html=1;" vertex="1" parent="1">
          <mxGeometry x="310" y="190" width="120" height="60" as="geometry" />
        </mxCell>
        <mxCell id="dUHJhGb4zcVwApMVoxg0-8" value="" style="edgeStyle=orthogonalEdgeStyle;rounded=0;orthogonalLoop=1;jettySize=auto;html=1;" edge="1" parent="1" source="dUHJhGb4zcVwApMVoxg0-5" target="dUHJhGb4zcVwApMVoxg0-7">
          <mxGeometry relative="1" as="geometry" />
        </mxCell>
        <mxCell id="dUHJhGb4zcVwApMVoxg0-5" value="vnode" style="whiteSpace=wrap;html=1;rounded=0;" vertex="1" parent="1">
          <mxGeometry x="510" y="190" width="120" height="60" as="geometry" />
        </mxCell>
        <mxCell id="dUHJhGb4zcVwApMVoxg0-7" value="用户界面" style="whiteSpace=wrap;html=1;rounded=0;" vertex="1" parent="1">
          <mxGeometry x="700" y="190" width="120" height="60" as="geometry" />
        </mxCell>
        <mxCell id="dUHJhGb4zcVwApMVoxg0-9" value="" style="endArrow=classic;html=1;rounded=0;" edge="1" parent="1">
          <mxGeometry width="50" height="50" relative="1" as="geometry">
            <mxPoint x="240" y="230" as="sourcePoint" />
            <mxPoint x="239.5" y="310" as="targetPoint" />
          </mxGeometry>
        </mxCell>
        <mxCell id="dUHJhGb4zcVwApMVoxg0-12" value="" style="edgeStyle=orthogonalEdgeStyle;rounded=0;orthogonalLoop=1;jettySize=auto;html=1;" edge="1" parent="1" source="dUHJhGb4zcVwApMVoxg0-10" target="dUHJhGb4zcVwApMVoxg0-11">
          <mxGeometry relative="1" as="geometry" />
        </mxCell>
        <mxCell id="dUHJhGb4zcVwApMVoxg0-10" value="parser(解析器)&lt;br&gt;HTML解析器，文本解析器，过滤器解析器" style="rounded=0;whiteSpace=wrap;html=1;" vertex="1" parent="1">
          <mxGeometry x="180" y="280" width="120" height="60" as="geometry" />
        </mxCell>
        <mxCell id="dUHJhGb4zcVwApMVoxg0-14" value="" style="edgeStyle=orthogonalEdgeStyle;rounded=0;orthogonalLoop=1;jettySize=auto;html=1;" edge="1" parent="1" source="dUHJhGb4zcVwApMVoxg0-11" target="dUHJhGb4zcVwApMVoxg0-13">
          <mxGeometry relative="1" as="geometry" />
        </mxCell>
        <mxCell id="dUHJhGb4zcVwApMVoxg0-11" value="ast" style="ellipse;whiteSpace=wrap;html=1;rounded=0;" vertex="1" parent="1">
          <mxGeometry x="180" y="390" width="120" height="60" as="geometry" />
        </mxCell>
        <mxCell id="dUHJhGb4zcVwApMVoxg0-16" value="" style="edgeStyle=orthogonalEdgeStyle;rounded=0;orthogonalLoop=1;jettySize=auto;html=1;" edge="1" parent="1" source="dUHJhGb4zcVwApMVoxg0-13">
          <mxGeometry relative="1" as="geometry">
            <mxPoint x="240" y="570" as="targetPoint" />
          </mxGeometry>
        </mxCell>
        <mxCell id="dUHJhGb4zcVwApMVoxg0-18" value="" style="edgeStyle=orthogonalEdgeStyle;rounded=0;orthogonalLoop=1;jettySize=auto;html=1;" edge="1" parent="1" source="dUHJhGb4zcVwApMVoxg0-13" target="dUHJhGb4zcVwApMVoxg0-17">
          <mxGeometry relative="1" as="geometry" />
        </mxCell>
        <mxCell id="dUHJhGb4zcVwApMVoxg0-13" value="优化器" style="whiteSpace=wrap;html=1;rounded=0;" vertex="1" parent="1">
          <mxGeometry x="180" y="470" width="120" height="60" as="geometry" />
        </mxCell>
        <mxCell id="dUHJhGb4zcVwApMVoxg0-20" value="" style="edgeStyle=orthogonalEdgeStyle;rounded=0;orthogonalLoop=1;jettySize=auto;html=1;" edge="1" parent="1" source="dUHJhGb4zcVwApMVoxg0-17" target="dUHJhGb4zcVwApMVoxg0-19">
          <mxGeometry relative="1" as="geometry" />
        </mxCell>
        <mxCell id="dUHJhGb4zcVwApMVoxg0-17" value="ast" style="ellipse;whiteSpace=wrap;html=1;rounded=0;" vertex="1" parent="1">
          <mxGeometry x="180" y="560" width="120" height="60" as="geometry" />
        </mxCell>
        <mxCell id="dUHJhGb4zcVwApMVoxg0-22" value="" style="edgeStyle=orthogonalEdgeStyle;rounded=0;orthogonalLoop=1;jettySize=auto;html=1;" edge="1" parent="1" source="dUHJhGb4zcVwApMVoxg0-19" target="dUHJhGb4zcVwApMVoxg0-21">
          <mxGeometry relative="1" as="geometry" />
        </mxCell>
        <mxCell id="dUHJhGb4zcVwApMVoxg0-19" value="生成器" style="whiteSpace=wrap;html=1;rounded=0;" vertex="1" parent="1">
          <mxGeometry x="180" y="640" width="120" height="60" as="geometry" />
        </mxCell>
        <mxCell id="dUHJhGb4zcVwApMVoxg0-21" value="render()函数" style="ellipse;whiteSpace=wrap;html=1;rounded=0;" vertex="1" parent="1">
          <mxGeometry x="180" y="730" width="120" height="60" as="geometry" />
        </mxCell>
      </root>
    </mxGraphModel>
  </diagram>
</mxfile>
